# xmcd
#
# Track frame offsets:
#	150
#	20640
#	43748
#	60781
#	81460
#	103010
#	127600
#	149076
#	161230
#	185881
#	205309
#	227857
#	245504
#	263724
#	278923
#	303641
#
# Disc length: 4386 seconds
#
# Revision: 0
# Processed by: cddbd v1.5.2PL0 Copyright (c) Steve Scherf et al.
# Submitted via: EasyCDDAExtractor 15.3.0.1
#
DISCID=ef112010
DTITLE=Pablo Alboran - Tour Terral - Tres Noches En Las Ventas
DYEAR=2015
DGENRE=Latin
TTITLE0=Esta Permitido
TTITLE1=La Escalera
TTITLE2=Pasos De Cero
TTITLE3=Ecos
TTITLE4=Recuerdame
TTITLE5=Quimera
TTITLE6=Cuando Te Alejas (Con Jorge Drexler)
TTITLE7=Miedo
TTITLE8=Perdoname (Con Carminho)
TTITLE9=Te He Echado De Menos
TTITLE10=Quien (Con Alejandro Sanz)
TTITLE11=Donde Esta El Amor
TTITLE12=Extasis
TTITLE13=Solamente Tu
TTITLE14=Por Fin (Con Bebe)
TTITLE15=Vivela
EXTD=
EXTT0=
EXTT1=
EXTT2=
EXTT3=
EXTT4=
EXTT5=
EXTT6=
EXTT7=
EXTT8=
EXTT9=
EXTT10=
EXTT11=
EXTT12=
EXTT13=
EXTT14=
EXTT15=
PLAYORDER=
